<svg xmlns="http://www.w3.org/2000/svg" width="36" height="54" viewBox="0 0 36 54">
  <defs>
    <linearGradient id="gradBody" x1="20%" y1="0%" x2="80%" y2="100%">
      <stop offset="0%" stop-color="#f87171"/>
      <stop offset="35%" stop-color="#ef4444"/>
      <stop offset="100%" stop-color="#b91c1c"/>
    </linearGradient>
    <radialGradient id="gradHighlight" cx="30%" cy="20%" r="60%">
      <stop offset="0%" stop-color="#ffffff" stop-opacity="0.55"/>
      <stop offset="40%" stop-color="#ffffff" stop-opacity="0.0"/>
      <stop offset="100%" stop-color="#ffffff" stop-opacity="0.0"/>
    </radialGradient>
    <filter id="dropShadow" x="-50%" y="-50%" width="200%" height="200%">
      <feGaussianBlur in="SourceAlpha" stdDeviation="1.5" result="blur"/>
      <feOffset in="blur" dx="0" dy="1" result="offset"/>
      <feMerge>
        <feMergeNode in="offset"/>
        <feMergeNode in="SourceGraphic"/>
      </feMerge>
    </filter>
  </defs>
  <!-- Soft ground shadow -->
  <ellipse cx="18" cy="51" rx="8" ry="2.5" fill="#000" opacity="0.18"/>
  <!-- Pin body with hole -->
  <path d="M18 53s15-21.6 15-35C33 8.283 26.732 0 18 0S3 8.283 3 18c0 13.4 15 35 15 35z" fill="url(#gradBody)" filter="url(#dropShadow)"/>
  <!-- Inner hole -->
  <circle cx="18" cy="16" r="6.2" fill="#fff"/>
  <circle cx="18" cy="16" r="4.2" fill="url(#gradBody)"/>
  <!-- Highlight sheen -->
  <path d="M10.5 6.5c2.8-2 6.2-3.2 9.9-3.0-4.2 1.3-7.9 3.7-10.6 7.0-1.0 1.3-1.7 2.6-2.0 4.0-0.2-3.3 0.7-6.0 2.7-8.0z" fill="url(#gradHighlight)"/>
</svg>
